#N canvas 1712 30 817 664 10;
#X obj 18 10 bng 15 250 50 0 empty empty empty 17 7 0 10 -262144 -1
-1;
#X obj 21 44 openpanel;
#X obj 20 89 print;
#X obj 152 349 readsf~;
#X obj 138 450 dac~;
#X msg 120 311 1;
#X msg 76 319 0;
#X obj 104 261 bng 15 250 50 0 empty empty empty 17 7 0 10 -262144
-1 -1;
#X obj 180 249 trigger b a;
#X obj 175 162 coll anyName;
#C restore;
#X msg 178 200 open \$1;
#X obj 180 58 bng 15 250 50 0 empty empty empty 17 7 0 10 -262144 -1
-1;
#X obj 179 90 random 2;
#X floatatom 179 126 5 0 0 0 - - -;
#X floatatom 218 360 5 0 0 0 - - -;
#X obj 143 400 *~;
#X obj 368 351 readsf~;
#X obj 354 452 dac~;
#X msg 336 313 1;
#X msg 292 321 0;
#X obj 320 263 bng 15 250 50 0 empty empty empty 17 7 0 10 -262144
-1 -1;
#X obj 396 251 trigger b a;
#X obj 391 164 coll anyName;
#C restore;
#X msg 394 202 open \$1;
#X obj 396 60 bng 15 250 50 0 empty empty empty 17 7 0 10 -262144 -1
-1;
#X obj 395 92 random 2;
#X floatatom 395 128 5 0 0 0 - - -;
#X floatatom 434 362 5 0 0 0 - - -;
#X obj 359 402 *~;
#X connect 0 0 1 0;
#X connect 1 0 2 0;
#X connect 3 0 15 0;
#X connect 5 0 3 0;
#X connect 6 0 3 0;
#X connect 7 0 5 0;
#X connect 8 0 7 0;
#X connect 8 1 3 0;
#X connect 9 0 10 0;
#X connect 10 0 8 0;
#X connect 11 0 12 0;
#X connect 12 0 13 0;
#X connect 13 0 9 0;
#X connect 14 0 15 1;
#X connect 15 0 4 0;
#X connect 15 0 4 1;
#X connect 16 0 28 0;
#X connect 18 0 16 0;
#X connect 19 0 16 0;
#X connect 20 0 18 0;
#X connect 21 0 20 0;
#X connect 21 1 16 0;
#X connect 22 0 23 0;
#X connect 23 0 21 0;
#X connect 24 0 25 0;
#X connect 25 0 26 0;
#X connect 26 0 22 0;
#X connect 27 0 28 1;
#X connect 28 0 17 0;
#X connect 28 0 17 1;
