#N canvas 1989 119 1121 664 10;
#X obj -152 -65 bng 15 250 50 0 empty empty empty 17 7 0 10 -262144
-1 -1;
#X obj -149 -31 openpanel;
#X obj -150 14 print;
#X obj -27 345 readsf~;
#X obj -41 446 dac~;
#X msg -59 307 1;
#X msg -106 318 0;
#X obj -75 257 bng 15 250 50 0 empty empty empty 17 7 0 10 -262144
-1 -1;
#X obj 1 245 trigger b a;
#X msg -1 196 open \$1;
#X obj 47 -16 bng 15 250 50 0 empty empty empty 17 7 0 10 -262144 -1
-1;
#X floatatom 0 122 5 0 0 0 - - -;
#X floatatom -7 373 5 0 0 0 - - -;
#X obj -36 396 *~;
#X obj 385 353 readsf~;
#X obj 371 454 dac~;
#X msg 353 315 1;
#X msg 309 323 0;
#X obj 337 265 bng 15 250 50 0 empty empty empty 17 7 0 10 -262144
-1 -1;
#X obj 413 253 trigger b a;
#X msg 411 204 open \$1;
#X obj 412 94 random 2;
#X floatatom 412 130 5 0 0 0 - - -;
#X floatatom 451 364 5 0 0 0 - - -;
#X obj 376 404 *~;
#X obj 0 86 random 2;
#X obj -6 161 coll rain;
#C restore;
#X obj 408 166 coll thunder;
#C restore;
#X obj 137 -61 random 12;
#X floatatom 293 -14 5 0 0 0 - - -;
#X floatatom 372 30 5 0 0 0 - - -;
#X obj 302 14 > 5;
#X obj 163 366 readsf~;
#X obj 149 467 dac~;
#X msg 174 304 1;
#X msg 135 318 0;
#X obj 159 270 bng 15 250 50 0 empty empty empty 17 7 0 10 -262144
-1 -1;
#X obj 191 266 trigger b a;
#X msg 189 217 open \$1;
#X obj 128 15 bng 15 250 50 0 empty empty empty 17 7 0 10 -262144 -1
-1;
#X floatatom 190 143 5 0 0 0 - - -;
#X floatatom 228 380 5 0 0 0 - - -;
#X obj 154 417 *~;
#X obj 184 181 coll ambient;
#C restore;
#X obj 190 107 random 5;
#X connect 0 0 1 0;
#X connect 1 0 2 0;
#X connect 3 0 13 0;
#X connect 3 1 10 0;
#X connect 5 0 3 0;
#X connect 6 0 3 0;
#X connect 7 0 5 0;
#X connect 8 0 7 0;
#X connect 8 1 3 0;
#X connect 9 0 8 0;
#X connect 10 0 25 0;
#X connect 10 0 28 0;
#X connect 10 0 39 0;
#X connect 11 0 26 0;
#X connect 12 0 13 1;
#X connect 13 0 4 0;
#X connect 13 0 4 1;
#X connect 14 0 24 0;
#X connect 16 0 14 0;
#X connect 17 0 14 0;
#X connect 18 0 16 0;
#X connect 19 0 18 0;
#X connect 19 1 14 0;
#X connect 20 0 19 0;
#X connect 21 0 22 0;
#X connect 22 0 27 0;
#X connect 23 0 24 1;
#X connect 24 0 15 0;
#X connect 24 0 15 1;
#X connect 25 0 11 0;
#X connect 26 0 9 0;
#X connect 27 0 20 0;
#X connect 28 0 29 0;
#X connect 29 0 31 0;
#X connect 30 0 21 0;
#X connect 30 0 21 1;
#X connect 31 0 30 0;
#X connect 32 0 42 0;
#X connect 34 0 32 0;
#X connect 35 0 32 0;
#X connect 36 0 34 0;
#X connect 37 0 36 0;
#X connect 37 1 32 0;
#X connect 38 0 37 0;
#X connect 39 0 44 0;
#X connect 40 0 43 0;
#X connect 41 0 42 1;
#X connect 42 0 33 0;
#X connect 42 0 33 1;
#X connect 43 0 38 0;
#X connect 44 0 40 0;
