#N canvas 1802 230 935 426 10;
#X obj 701 219 key;
#X obj 52 6 key;
#X obj 123 4 key;
#X obj 208 2 key;
#N canvas 815 277 641 619 footsteps 0;
#X obj -18 368 readsf~;
#X obj -32 469 dac~;
#X msg -50 330 1;
#X msg -97 341 0;
#X obj -66 280 bng 15 250 50 0 empty empty empty 17 7 0 10 -262144
-1 -1;
#X obj 10 268 trigger b a;
#X msg 8 219 open \$1;
#X floatatom 19 144 5 0 0 0 - - -;
#X floatatom 14 412 5 0 0 0 - - -;
#X obj 34 49 0;
#X obj 29 17 inlet;
#X obj 36 84 sel 102;
#X obj 3 184 coll footsteps.txt;
#C restore;
#X obj 28 112 random 3;
#X obj -27 419 *~ 1;
#X connect 0 0 14 0;
#X connect 2 0 0 0;
#X connect 3 0 0 0;
#X connect 4 0 2 0;
#X connect 5 0 4 0;
#X connect 5 1 0 0;
#X connect 6 0 5 0;
#X connect 7 0 12 0;
#X connect 8 0 14 1;
#X connect 9 0 11 0;
#X connect 10 0 9 0;
#X connect 11 0 13 0;
#X connect 12 0 6 0;
#X connect 13 0 7 0;
#X connect 14 0 1 0;
#X connect 14 0 1 1;
#X restore 701 277 pd footsteps;
#N canvas 767 268 641 619 character 0;
#X obj -18 368 readsf~;
#X obj -32 469 dac~;
#X msg -50 330 1;
#X msg -97 341 0;
#X obj -66 280 bng 15 250 50 0 empty empty empty 17 7 0 10 -262144
-1 -1;
#X obj 10 268 trigger b a;
#X msg 8 219 open \$1;
#X floatatom 19 144 5 0 0 0 - - -;
#X floatatom 40 405 5 0 0 0 - - -;
#X obj 34 49 0;
#X obj 29 17 inlet;
#X obj 3 184 coll character.txt;
#C restore;
#X obj 36 84 sel 99;
#X obj -27 419 *~ 1;
#X obj 28 112 random 0;
#X connect 0 0 13 0;
#X connect 2 0 0 0;
#X connect 3 0 0 0;
#X connect 4 0 2 0;
#X connect 5 0 4 0;
#X connect 5 1 0 0;
#X connect 6 0 5 0;
#X connect 7 0 11 0;
#X connect 8 0 13 1;
#X connect 9 0 12 0;
#X connect 10 0 9 0;
#X connect 11 0 6 0;
#X connect 12 0 14 0;
#X connect 13 0 1 0;
#X connect 13 0 1 1;
#X connect 14 0 7 0;
#X restore 121 64 pd character;
#N canvas 813 254 641 619 specialFX 0;
#X obj -18 368 readsf~;
#X obj -32 469 dac~;
#X msg -50 330 1;
#X msg -97 341 0;
#X obj -66 280 bng 15 250 50 0 empty empty empty 17 7 0 10 -262144
-1 -1;
#X obj 10 268 trigger b a;
#X msg 8 219 open \$1;
#X floatatom 19 144 5 0 0 0 - - -;
#X floatatom 4 395 5 0 0 0 - - -;
#X obj 34 49 0;
#X obj 36 84 sel 32;
#X obj 29 17 inlet;
#X obj 3 184 coll specialFX.txt;
#C restore;
#X obj 28 112 random 8;
#X obj -27 419 *~ 1;
#X connect 0 0 14 0;
#X connect 2 0 0 0;
#X connect 3 0 0 0;
#X connect 4 0 2 0;
#X connect 5 0 4 0;
#X connect 5 1 0 0;
#X connect 6 0 5 0;
#X connect 7 0 12 0;
#X connect 8 0 14 1;
#X connect 9 0 10 0;
#X connect 10 0 13 0;
#X connect 11 0 9 0;
#X connect 12 0 6 0;
#X connect 13 0 7 0;
#X connect 14 0 1 0;
#X connect 14 0 1 1;
#X restore 203 63 pd specialFX;
#X obj 296 1 key;
#X obj 388 -2 key;
#X obj 445 -6 key;
#N canvas 657 204 641 619 waterSounds 0;
#X obj -18 368 readsf~;
#X obj -32 469 dac~;
#X msg -50 330 1;
#X msg -97 341 0;
#X obj -66 280 bng 15 250 50 0 empty empty empty 17 7 0 10 -262144
-1 -1;
#X obj 10 268 trigger b a;
#X msg 8 219 open \$1;
#X floatatom 19 144 5 0 0 0 - - -;
#X floatatom 4 395 5 0 0 0 - - -;
#X obj 34 49 0;
#X obj 29 17 inlet;
#X obj 3 184 coll waterSounds.txt;
#C restore;
#X obj 28 112 random 4;
#X obj 36 84 sel 119;
#X obj -27 419 *~ 1;
#X connect 0 0 14 0;
#X connect 2 0 0 0;
#X connect 3 0 0 0;
#X connect 4 0 2 0;
#X connect 5 0 4 0;
#X connect 5 1 0 0;
#X connect 6 0 5 0;
#X connect 7 0 11 0;
#X connect 8 0 14 1;
#X connect 9 0 13 0;
#X connect 10 0 9 0;
#X connect 11 0 6 0;
#X connect 12 0 7 0;
#X connect 13 0 12 0;
#X connect 14 0 1 0;
#X connect 14 0 1 1;
#X restore 290 61 pd waterSounds;
#N canvas 781 325 641 619 doors 0;
#X obj -18 368 readsf~;
#X obj -32 469 dac~;
#X msg -50 330 1;
#X msg -97 341 0;
#X obj -66 280 bng 15 250 50 0 empty empty empty 17 7 0 10 -262144
-1 -1;
#X obj 10 268 trigger b a;
#X msg 8 219 open \$1;
#X floatatom 19 144 5 0 0 0 - - -;
#X floatatom 4 395 5 0 0 0 - - -;
#X obj 34 49 0;
#X obj 29 17 inlet;
#X obj 3 184 coll doors.txt;
#C restore;
#X obj 28 112 random 2;
#X obj 36 84 sel 100;
#X obj -27 419 *~ 1;
#X connect 0 0 14 0;
#X connect 2 0 0 0;
#X connect 3 0 0 0;
#X connect 4 0 2 0;
#X connect 5 0 4 0;
#X connect 5 1 0 0;
#X connect 6 0 5 0;
#X connect 7 0 11 0;
#X connect 8 0 14 1;
#X connect 9 0 13 0;
#X connect 10 0 9 0;
#X connect 11 0 6 0;
#X connect 12 0 7 0;
#X connect 13 0 12 0;
#X connect 14 0 1 0;
#X connect 14 0 1 1;
#X restore 386 58 pd doors;
#N canvas 722 448 641 619 breaths 0;
#X obj -18 368 readsf~;
#X obj -32 469 dac~;
#X msg -50 330 1;
#X msg -97 341 0;
#X obj -66 280 bng 15 250 50 0 empty empty empty 17 7 0 10 -262144
-1 -1;
#X obj 10 268 trigger b a;
#X msg 8 219 open \$1;
#X floatatom 19 144 5 0 0 0 - - -;
#X floatatom 4 395 5 0 0 0 - - -;
#X obj 34 49 0;
#X obj 29 17 inlet;
#X obj 3 184 coll breaths.txt;
#C restore;
#X obj 28 112 random 1;
#X obj 36 84 sel 98;
#X obj -27 419 *~ 1;
#X connect 0 0 14 0;
#X connect 2 0 0 0;
#X connect 3 0 0 0;
#X connect 4 0 2 0;
#X connect 5 0 4 0;
#X connect 5 1 0 0;
#X connect 6 0 5 0;
#X connect 7 0 11 0;
#X connect 8 0 14 1;
#X connect 9 0 13 0;
#X connect 10 0 9 0;
#X connect 11 0 6 0;
#X connect 12 0 7 0;
#X connect 13 0 12 0;
#X connect 14 0 1 0;
#X connect 14 0 1 1;
#X restore 448 56 pd breaths;
#X text 708 245 f;
#X text 60 34 a;
#X text 134 33 c;
#X text 215 32 space;
#X text 304 29 w;
#X text 394 25 d;
#X text 463 25 b;
#X obj 42 115 key;
#N canvas 687 323 767 617 ambientTrains 0;
#X obj -18 368 readsf~;
#X obj -32 469 dac~;
#X msg -50 330 1;
#X msg -97 341 0;
#X obj -66 280 bng 15 250 50 0 empty empty empty 17 7 0 10 -262144
-1 -1;
#X obj 10 268 trigger b a;
#X msg 8 219 open \$1;
#X floatatom 19 144 5 0 0 0 - - -;
#X floatatom 4 395 5 0 0 0 - - -;
#X obj 34 49 0;
#X obj 29 17 inlet;
#X obj 3 184 coll subway.txt;
#C restore;
#X obj 36 84 sel 115;
#X obj 28 112 random 1;
#X obj -27 419 *~ 1;
#X connect 0 0 14 0;
#X connect 2 0 0 0;
#X connect 3 0 0 0;
#X connect 4 0 2 0;
#X connect 5 0 4 0;
#X connect 5 1 0 0;
#X connect 6 0 5 0;
#X connect 7 0 11 0;
#X connect 8 0 14 1;
#X connect 9 0 12 0;
#X connect 10 0 9 0;
#X connect 11 0 6 0;
#X connect 12 0 13 0;
#X connect 13 0 7 0;
#X connect 14 0 1 0;
#X connect 14 0 1 1;
#X restore 38 173 pd ambientTrains;
#X obj 158 113 key;
#N canvas 687 323 767 617 ambientRain 0;
#X obj -18 368 readsf~;
#X obj -32 469 dac~;
#X msg -50 330 1;
#X msg -97 341 0;
#X obj -66 280 bng 15 250 50 0 empty empty empty 17 7 0 10 -262144
-1 -1;
#X obj 10 268 trigger b a;
#X msg 8 219 open \$1;
#X floatatom 19 144 5 0 0 0 - - -;
#X floatatom 4 395 5 0 0 0 - - -;
#X obj 34 49 0;
#X obj 29 17 inlet;
#X obj 3 184 coll rain.txt;
#C restore;
#X obj 28 112 random 3;
#X obj 36 84 sel 114;
#X obj -27 419 *~ 1;
#X connect 0 0 14 0;
#X connect 2 0 0 0;
#X connect 3 0 0 0;
#X connect 4 0 2 0;
#X connect 5 0 4 0;
#X connect 5 1 0 0;
#X connect 6 0 5 0;
#X connect 7 0 11 0;
#X connect 8 0 14 1;
#X connect 9 0 13 0;
#X connect 10 0 9 0;
#X connect 11 0 6 0;
#X connect 12 0 7 0;
#X connect 13 0 12 0;
#X connect 14 0 1 0;
#X connect 14 0 1 1;
#X restore 152 173 pd ambientRain;
#X obj 255 112 key;
#N canvas 687 323 767 617 ambientThunder 0;
#X obj -18 368 readsf~;
#X obj -32 469 dac~;
#X msg -50 330 1;
#X msg -97 341 0;
#X obj -66 280 bng 15 250 50 0 empty empty empty 17 7 0 10 -262144
-1 -1;
#X obj 10 268 trigger b a;
#X msg 8 219 open \$1;
#X floatatom 19 144 5 0 0 0 - - -;
#X floatatom 4 395 5 0 0 0 - - -;
#X obj 34 49 0;
#X obj 29 17 inlet;
#X obj 36 84 sel 116;
#X obj 3 184 coll thunder.txt;
#C restore;
#X obj 28 112 random 2;
#X obj -27 419 *~ 1;
#X connect 0 0 14 0;
#X connect 2 0 0 0;
#X connect 3 0 0 0;
#X connect 4 0 2 0;
#X connect 5 0 4 0;
#X connect 5 1 0 0;
#X connect 6 0 5 0;
#X connect 7 0 12 0;
#X connect 8 0 14 1;
#X connect 9 0 11 0;
#X connect 10 0 9 0;
#X connect 11 0 13 0;
#X connect 12 0 6 0;
#X connect 13 0 7 0;
#X connect 14 0 1 0;
#X connect 14 0 1 1;
#X restore 249 172 pd ambientThunder;
#X obj 373 111 key;
#N canvas 687 323 767 617 ambientWind 0;
#X obj -18 368 readsf~;
#X obj -32 469 dac~;
#X msg -50 330 1;
#X msg -97 341 0;
#X obj -66 280 bng 15 250 50 0 empty empty empty 17 7 0 10 -262144
-1 -1;
#X obj 10 268 trigger b a;
#X msg 8 219 open \$1;
#X floatatom 19 144 5 0 0 0 - - -;
#X floatatom 4 395 5 0 0 0 - - -;
#X obj 34 49 0;
#X obj 29 17 inlet;
#X obj 38 84 sel 113;
#X obj 3 184 coll wind.txt;
#C restore;
#X obj 28 112 random 1;
#X obj -27 420 *~ 1;
#X connect 0 0 14 0;
#X connect 2 0 0 0;
#X connect 3 0 0 0;
#X connect 4 0 2 0;
#X connect 5 0 4 0;
#X connect 5 1 0 0;
#X connect 6 0 5 0;
#X connect 7 0 12 0;
#X connect 8 0 14 1;
#X connect 9 0 11 0;
#X connect 10 0 9 0;
#X connect 11 0 13 0;
#X connect 12 0 6 0;
#X connect 13 0 7 0;
#X connect 14 0 1 0;
#X connect 14 0 1 1;
#X restore 367 171 pd ambientWind;
#N canvas 740 44 767 617 ambientOutdoors 0;
#X obj -18 368 readsf~;
#X obj -32 469 dac~;
#X msg -50 330 1;
#X msg -97 341 0;
#X obj -66 280 bng 15 250 50 0 empty empty empty 17 7 0 10 -262144
-1 -1;
#X obj 10 268 trigger b a;
#X msg 8 219 open \$1;
#X floatatom 19 144 5 0 0 0 - - -;
#X floatatom 4 395 5 0 0 0 - - -;
#X obj 34 49 0;
#X obj 29 17 inlet;
#X obj 3 184 coll ambientSounds.txt;
#C restore;
#X obj 36 84 sel 97;
#X obj 28 112 random 11;
#X obj -27 419 *~ 1;
#X connect 0 0 14 0;
#X connect 2 0 0 0;
#X connect 3 0 0 0;
#X connect 4 0 2 0;
#X connect 5 0 4 0;
#X connect 5 1 0 0;
#X connect 6 0 5 0;
#X connect 7 0 11 0;
#X connect 8 0 14 1;
#X connect 9 0 12 0;
#X connect 10 0 9 0;
#X connect 11 0 6 0;
#X connect 12 0 13 0;
#X connect 13 0 7 0;
#X connect 14 0 1 0;
#X connect 14 0 1 1;
#X restore 39 84 pd ambientOutdoors;
#X text 52 133 s;
#X text 166 141 r;
#X text 263 140 t;
#X text 381 139 q;
#X obj 671 112 key;
#N canvas 1831 464 767 617 zap 0;
#X obj -18 368 readsf~;
#X obj -32 469 dac~;
#X msg -50 330 1;
#X msg -97 341 0;
#X obj -66 280 bng 15 250 50 0 empty empty empty 17 7 0 10 -262144
-1 -1;
#X obj 10 268 trigger b a;
#X msg 8 219 open \$1;
#X floatatom 19 144 5 0 0 0 - - -;
#X floatatom 4 395 5 0 0 0 - - -;
#X obj 34 49 0;
#X obj 29 17 inlet;
#X obj -27 420 *~ 1;
#X obj 38 84 sel 122;
#X obj 28 112 random 2;
#X obj 3 184 coll zap.txt;
#C restore;
#X connect 0 0 11 0;
#X connect 2 0 0 0;
#X connect 3 0 0 0;
#X connect 4 0 2 0;
#X connect 5 0 4 0;
#X connect 5 1 0 0;
#X connect 6 0 5 0;
#X connect 7 0 14 0;
#X connect 8 0 11 1;
#X connect 9 0 12 0;
#X connect 10 0 9 0;
#X connect 11 0 1 0;
#X connect 11 0 1 1;
#X connect 12 0 13 0;
#X connect 13 0 7 0;
#X connect 14 0 6 0;
#X restore 665 172 pd zap;
#X obj 730 111 key;
#N canvas 1919 392 767 544 swosh 0;
#X obj -18 368 readsf~;
#X obj -32 469 dac~;
#X msg -50 330 1;
#X msg -97 341 0;
#X obj -66 280 bng 15 250 50 0 empty empty empty 17 7 0 10 -262144
-1 -1;
#X obj 10 268 trigger b a;
#X msg 8 219 open \$1;
#X floatatom 19 144 5 0 0 0 - - -;
#X floatatom 4 395 5 0 0 0 - - -;
#X obj 34 49 0;
#X obj 29 17 inlet;
#X obj -27 420 *~ 1;
#X obj 3 184 coll swosh.txt;
#C restore;
#X obj 38 84 sel 120;
#X obj 28 112 random 3;
#X connect 0 0 11 0;
#X connect 2 0 0 0;
#X connect 3 0 0 0;
#X connect 4 0 2 0;
#X connect 5 0 4 0;
#X connect 5 1 0 0;
#X connect 6 0 5 0;
#X connect 7 0 12 0;
#X connect 8 0 11 1;
#X connect 9 0 13 0;
#X connect 10 0 9 0;
#X connect 11 0 1 0;
#X connect 11 0 1 1;
#X connect 12 0 6 0;
#X connect 13 0 14 0;
#X connect 14 0 7 0;
#X restore 724 171 pd swosh;
#X obj 798 223 key;
#N canvas 1847 432 767 617 punch 0;
#X obj -18 368 readsf~;
#X obj -32 469 dac~;
#X msg -50 330 1;
#X msg -97 341 0;
#X obj -66 280 bng 15 250 50 0 empty empty empty 17 7 0 10 -262144
-1 -1;
#X obj 10 268 trigger b a;
#X msg 8 219 open \$1;
#X floatatom 19 144 5 0 0 0 - - -;
#X floatatom 4 395 5 0 0 0 - - -;
#X obj 34 49 0;
#X obj 29 17 inlet;
#X obj -27 420 *~ 1;
#X obj 38 84 sel 112;
#X obj 28 112 random 4;
#X obj 3 184 coll punch.txt;
#C restore;
#X connect 0 0 11 0;
#X connect 2 0 0 0;
#X connect 3 0 0 0;
#X connect 4 0 2 0;
#X connect 5 0 4 0;
#X connect 5 1 0 0;
#X connect 6 0 5 0;
#X connect 7 0 14 0;
#X connect 8 0 11 1;
#X connect 9 0 12 0;
#X connect 10 0 9 0;
#X connect 11 0 1 0;
#X connect 11 0 1 1;
#X connect 12 0 13 0;
#X connect 13 0 7 0;
#X connect 14 0 6 0;
#X restore 792 283 pd punch;
#X text 806 251 p;
#X text 738 139 x;
#X text 679 140 z;
#X obj 799 117 key;
#X text 807 145 g;
#N canvas 1845 482 767 617 tap 0;
#X obj -18 368 readsf~;
#X obj -32 469 dac~;
#X msg -50 330 1;
#X msg -97 341 0;
#X obj -66 280 bng 15 250 50 0 empty empty empty 17 7 0 10 -262144
-1 -1;
#X obj 10 268 trigger b a;
#X msg 8 219 open \$1;
#X floatatom 19 144 5 0 0 0 - - -;
#X floatatom 4 395 5 0 0 0 - - -;
#X obj 34 49 0;
#X obj 29 17 inlet;
#X obj -27 420 *~ 1;
#X obj 38 84 sel 103;
#X obj 28 112 random 1;
#X obj 3 184 coll tap.txt;
#C restore;
#X connect 0 0 11 0;
#X connect 2 0 0 0;
#X connect 3 0 0 0;
#X connect 4 0 2 0;
#X connect 5 0 4 0;
#X connect 5 1 0 0;
#X connect 6 0 5 0;
#X connect 7 0 14 0;
#X connect 8 0 11 1;
#X connect 9 0 12 0;
#X connect 10 0 9 0;
#X connect 11 0 1 0;
#X connect 11 0 1 1;
#X connect 12 0 13 0;
#X connect 13 0 7 0;
#X connect 14 0 6 0;
#X restore 793 177 pd tap;
#X connect 0 0 4 0;
#X connect 1 0 28 0;
#X connect 2 0 5 0;
#X connect 3 0 6 0;
#X connect 7 0 10 0;
#X connect 8 0 11 0;
#X connect 9 0 12 0;
#X connect 20 0 21 0;
#X connect 22 0 23 0;
#X connect 24 0 25 0;
#X connect 26 0 27 0;
#X connect 33 0 34 0;
#X connect 35 0 36 0;
#X connect 37 0 38 0;
#X connect 42 0 44 0;
