#N canvas 2660 0 935 426 10;
#X obj 58 114 key;
#X obj 148 111 key;
#X obj 218 111 key;
#X obj 302 110 key;
#N canvas 2672 141 641 619 footsteps 0;
#X obj -18 368 readsf~;
#X obj -32 469 dac~;
#X msg -50 330 1;
#X msg -97 341 0;
#X obj -66 280 bng 15 250 50 0 empty empty empty 17 7 0 10 -262144
-1 -1;
#X obj 10 268 trigger b a;
#X msg 8 219 open \$1;
#X floatatom 19 144 5 0 0 0 - - -;
#X floatatom 14 412 5 0 0 0 - - -;
#X obj -27 419 *~;
#X obj 34 49 0;
#X obj 29 17 inlet;
#X obj 36 84 sel 102;
#X obj 3 184 coll footsteps.txt;
#C restore;
#X obj 28 112 random 3;
#X connect 0 0 9 0;
#X connect 2 0 0 0;
#X connect 3 0 0 0;
#X connect 4 0 2 0;
#X connect 5 0 4 0;
#X connect 5 1 0 0;
#X connect 6 0 5 0;
#X connect 7 0 13 0;
#X connect 8 0 9 1;
#X connect 9 0 1 0;
#X connect 9 0 1 1;
#X connect 10 0 12 0;
#X connect 11 0 10 0;
#X connect 12 0 14 0;
#X connect 13 0 6 0;
#X connect 14 0 7 0;
#X restore 58 172 pd footsteps;
#N canvas 2707 272 767 617 ambient 0;
#X obj -18 368 readsf~;
#X obj -32 469 dac~;
#X msg -50 330 1;
#X msg -97 341 0;
#X obj -66 280 bng 15 250 50 0 empty empty empty 17 7 0 10 -262144
-1 -1;
#X obj 10 268 trigger b a;
#X msg 8 219 open \$1;
#X floatatom 19 144 5 0 0 0 - - -;
#X floatatom 4 395 5 0 0 0 - - -;
#X obj -27 419 *~;
#X obj 34 49 0;
#X obj 29 17 inlet;
#X obj 3 184 coll ambientSounds.txt;
#C restore;
#X obj 36 84 sel 97;
#X obj 28 112 random 11;
#X connect 0 0 9 0;
#X connect 2 0 0 0;
#X connect 3 0 0 0;
#X connect 4 0 2 0;
#X connect 5 0 4 0;
#X connect 5 1 0 0;
#X connect 6 0 5 0;
#X connect 7 0 12 0;
#X connect 8 0 9 1;
#X connect 9 0 1 0;
#X connect 9 0 1 1;
#X connect 10 0 13 0;
#X connect 11 0 10 0;
#X connect 12 0 6 0;
#X connect 13 0 14 0;
#X connect 14 0 7 0;
#X restore 142 171 pd ambient;
#N canvas 2803 250 641 619 character 0;
#X obj -18 368 readsf~;
#X obj -32 469 dac~;
#X msg -50 330 1;
#X msg -97 341 0;
#X obj -66 280 bng 15 250 50 0 empty empty empty 17 7 0 10 -262144
-1 -1;
#X obj 10 268 trigger b a;
#X msg 8 219 open \$1;
#X floatatom 19 144 5 0 0 0 - - -;
#X floatatom 4 395 5 0 0 0 - - -;
#X obj -27 419 *~;
#X obj 34 49 0;
#X obj 28 112 random 14;
#X obj 29 17 inlet;
#X obj 3 184 coll character.txt;
#C restore;
#X obj 36 84 sel 99;
#X connect 0 0 9 0;
#X connect 2 0 0 0;
#X connect 3 0 0 0;
#X connect 4 0 2 0;
#X connect 5 0 4 0;
#X connect 5 1 0 0;
#X connect 6 0 5 0;
#X connect 7 0 13 0;
#X connect 8 0 9 1;
#X connect 9 0 1 0;
#X connect 9 0 1 1;
#X connect 10 0 14 0;
#X connect 11 0 7 0;
#X connect 12 0 10 0;
#X connect 13 0 6 0;
#X connect 14 0 11 0;
#X restore 216 171 pd character;
#N canvas 2647 280 641 619 specialFX 0;
#X obj -18 368 readsf~;
#X obj -32 469 dac~;
#X msg -50 330 1;
#X msg -97 341 0;
#X obj -66 280 bng 15 250 50 0 empty empty empty 17 7 0 10 -262144
-1 -1;
#X obj 10 268 trigger b a;
#X msg 8 219 open \$1;
#X floatatom 19 144 5 0 0 0 - - -;
#X floatatom 4 395 5 0 0 0 - - -;
#X obj -27 419 *~;
#X obj 34 49 0;
#X obj 36 84 sel 32;
#X obj 29 17 inlet;
#X obj 3 184 coll specialFX.txt;
#C restore;
#X obj 28 112 random 8;
#X connect 0 0 9 0;
#X connect 2 0 0 0;
#X connect 3 0 0 0;
#X connect 4 0 2 0;
#X connect 5 0 4 0;
#X connect 5 1 0 0;
#X connect 6 0 5 0;
#X connect 7 0 13 0;
#X connect 8 0 9 1;
#X connect 9 0 1 0;
#X connect 9 0 1 1;
#X connect 10 0 11 0;
#X connect 11 0 14 0;
#X connect 12 0 10 0;
#X connect 13 0 6 0;
#X connect 14 0 7 0;
#X restore 297 171 pd specialFX;
#X obj 387 108 key;
#X obj 479 105 key;
#X obj 544 102 key;
#N canvas 2677 219 641 619 waterSounds 0;
#X obj -18 368 readsf~;
#X obj -32 469 dac~;
#X msg -50 330 1;
#X msg -97 341 0;
#X obj -66 280 bng 15 250 50 0 empty empty empty 17 7 0 10 -262144
-1 -1;
#X obj 10 268 trigger b a;
#X msg 8 219 open \$1;
#X floatatom 19 144 5 0 0 0 - - -;
#X floatatom 4 395 5 0 0 0 - - -;
#X obj -27 419 *~;
#X obj 34 49 0;
#X obj 29 17 inlet;
#X obj 3 184 coll waterSounds.txt;
#C restore;
#X obj 28 112 random 4;
#X obj 36 84 sel 119;
#X connect 0 0 9 0;
#X connect 2 0 0 0;
#X connect 3 0 0 0;
#X connect 4 0 2 0;
#X connect 5 0 4 0;
#X connect 5 1 0 0;
#X connect 6 0 5 0;
#X connect 7 0 12 0;
#X connect 8 0 9 1;
#X connect 9 0 1 0;
#X connect 9 0 1 1;
#X connect 10 0 14 0;
#X connect 11 0 10 0;
#X connect 12 0 6 0;
#X connect 13 0 7 0;
#X connect 14 0 13 0;
#X restore 381 168 pd waterSounds;
#N canvas 2697 261 641 619 doors 0;
#X obj -18 368 readsf~;
#X obj -32 469 dac~;
#X msg -50 330 1;
#X msg -97 341 0;
#X obj -66 280 bng 15 250 50 0 empty empty empty 17 7 0 10 -262144
-1 -1;
#X obj 10 268 trigger b a;
#X msg 8 219 open \$1;
#X floatatom 19 144 5 0 0 0 - - -;
#X floatatom 4 395 5 0 0 0 - - -;
#X obj -27 419 *~;
#X obj 34 49 0;
#X obj 29 17 inlet;
#X obj 3 184 coll doors.txt;
#C restore;
#X obj 28 112 random 2;
#X obj 36 84 sel 100;
#X connect 0 0 9 0;
#X connect 2 0 0 0;
#X connect 3 0 0 0;
#X connect 4 0 2 0;
#X connect 5 0 4 0;
#X connect 5 1 0 0;
#X connect 6 0 5 0;
#X connect 7 0 12 0;
#X connect 8 0 9 1;
#X connect 9 0 1 0;
#X connect 9 0 1 1;
#X connect 10 0 14 0;
#X connect 11 0 10 0;
#X connect 12 0 6 0;
#X connect 13 0 7 0;
#X connect 14 0 13 0;
#X restore 477 165 pd doors;
#N canvas 2714 315 641 619 breaths 0;
#X obj -18 368 readsf~;
#X obj -32 469 dac~;
#X msg -50 330 1;
#X msg -97 341 0;
#X obj -66 280 bng 15 250 50 0 empty empty empty 17 7 0 10 -262144
-1 -1;
#X obj 10 268 trigger b a;
#X msg 8 219 open \$1;
#X floatatom 19 144 5 0 0 0 - - -;
#X floatatom 4 395 5 0 0 0 - - -;
#X obj -27 419 *~;
#X obj 34 49 0;
#X obj 29 17 inlet;
#X obj 3 184 coll breaths.txt;
#C restore;
#X obj 28 112 random 1;
#X obj 36 84 sel 98;
#X connect 0 0 9 0;
#X connect 2 0 0 0;
#X connect 3 0 0 0;
#X connect 4 0 2 0;
#X connect 5 0 4 0;
#X connect 5 1 0 0;
#X connect 6 0 5 0;
#X connect 7 0 12 0;
#X connect 8 0 9 1;
#X connect 9 0 1 0;
#X connect 9 0 1 1;
#X connect 10 0 14 0;
#X connect 11 0 10 0;
#X connect 12 0 6 0;
#X connect 13 0 7 0;
#X connect 14 0 13 0;
#X restore 539 163 pd breaths;
#X text 65 140 f;
#X text 156 139 a;
#X text 229 140 c;
#X text 309 140 space;
#X text 395 136 w;
#X text 485 132 d;
#X text 554 132 b;
#X connect 0 0 4 0;
#X connect 1 0 5 0;
#X connect 2 0 6 0;
#X connect 3 0 7 0;
#X connect 8 0 11 0;
#X connect 9 0 12 0;
#X connect 10 0 13 0;
