#N canvas 1756 187 1121 664 10;
#X obj -3 66 key;
#N canvas 1907 374 641 619 sounds 0;
#X obj -18 368 readsf~;
#X obj -32 469 dac~;
#X msg -50 330 1;
#X msg -97 341 0;
#X obj -66 280 bng 15 250 50 0 empty empty empty 17 7 0 10 -262144
-1 -1;
#X obj 10 268 trigger b a;
#X msg 8 219 open \$1;
#X floatatom 19 144 5 0 0 0 - - -;
#X floatatom 4 395 5 0 0 0 - - -;
#X obj -27 419 *~;
#X obj 3 184 coll sounds.txt;
#C restore;
#X obj 34 49 0;
#X obj 36 84 sel 32;
#X obj 28 112 random 14;
#X obj 29 17 inlet;
#X connect 0 0 9 0;
#X connect 2 0 0 0;
#X connect 3 0 0 0;
#X connect 4 0 2 0;
#X connect 5 0 4 0;
#X connect 5 1 0 0;
#X connect 6 0 5 0;
#X connect 7 0 10 0;
#X connect 8 0 9 1;
#X connect 9 0 1 0;
#X connect 9 0 1 1;
#X connect 10 0 6 0;
#X connect 11 0 12 0;
#X connect 12 0 13 0;
#X connect 13 0 7 0;
#X connect 14 0 11 0;
#X restore -5 119 pd sounds;
#X connect 0 0 1 0;
