#N canvas 363 312 450 300 10;
#N canvas 888 406 450 300 house 0;
#X obj 114 88 receive ??;
#X floatatom 118 134 5 0 0 0 - - -;
#X obj 212 32 inlet;
#X obj 220 96 outlet;
#X obj 305 58 receive mouseX;
#X floatatom 305 98 5 0 0 0 - - -;
#X obj 304 135 > 10;
#X obj 351 134 < 100;
#X obj 323 170 &&;
#X floatatom 324 207 5 0 0 0 - - -;
#X obj 318 231 sel 1;
#X obj 322 258 bng 15 250 50 0 empty empty empty 17 7 0 10 -262144
-1 -1;
#X connect 0 0 1 0;
#X connect 4 0 5 0;
#X connect 5 0 6 0;
#X connect 5 0 7 0;
#X connect 6 0 8 0;
#X connect 7 0 8 1;
#X connect 8 0 9 0;
#X connect 9 0 10 0;
#X connect 10 0 11 0;
#X restore 86 43 pd house;
#N canvas 420 477 450 267 mouse_position 0;
#X obj 99 26 tgl 15 0 empty empty empty 17 7 0 10 -262144 -1 -1 1 1
;
#X obj 109 71 cursor;
#X obj 125 110 route motion;
#X obj 137 146 route x y;
#X floatatom 133 182 5 0 0 0 - - -;
#X floatatom 189 184 5 0 0 0 - - -;
#X obj 108 225 send mouseX;
#X obj 195 223 send mouseY;
#X connect 0 0 1 0;
#X connect 1 0 2 0;
#X connect 2 0 3 0;
#X connect 3 0 4 0;
#X connect 3 1 5 0;
#X connect 4 0 6 0;
#X connect 5 0 7 0;
#X restore 217 50 pd mouse_position;
#N canvas 937 451 450 300 level_1 0;
#X restore 96 106 pd level_1;
#X obj 99 155 send ??;
#X floatatom 92 128 5 0 0 0 - - -;
#X connect 4 0 3 0;
