#N canvas 220 312 450 300 10;
#X obj 53 30 key;
#N canvas 726 420 700 584 move 0;
#X obj -76 25 inlet;
#X obj -74 57 0;
#X floatatom -46 222 5 0 0 0 - - -;
#X floatatom 34 207 5 0 0 0 - - -;
#X obj -81 192 +;
#X obj -91 131 -1;
#X obj -49 133 1;
#X obj -6 191 +;
#X obj -14 133 -1;
#X obj 28 135 1;
#X obj -85 91 sel 97 100 115 119;
#X obj 96 405 readsf~;
#X obj 82 506 dac~;
#X msg 64 367 1;
#X msg 17 378 0;
#X obj 48 317 bng 15 250 50 0 empty empty empty 17 7 0 10 -262144 -1
-1;
#X obj 124 305 trigger b a;
#X msg 122 256 open \$1;
#X floatatom 133 181 5 0 0 0 - - -;
#X floatatom 128 449 5 0 0 0 - - -;
#X obj 117 221 coll footsteps.txt;
#C restore;
#X obj 142 149 random 3;
#X obj 87 456 *~ 1;
#X obj -70 275 send xLoc;
#X obj 28 267 send yLoc;
#X connect 0 0 1 0;
#X connect 1 0 10 0;
#X connect 2 0 4 1;
#X connect 2 0 23 0;
#X connect 3 0 7 1;
#X connect 3 0 24 0;
#X connect 4 0 2 0;
#X connect 5 0 4 0;
#X connect 6 0 4 0;
#X connect 7 0 3 0;
#X connect 8 0 7 0;
#X connect 9 0 7 0;
#X connect 10 0 5 0;
#X connect 10 0 21 0;
#X connect 10 1 6 0;
#X connect 10 1 21 0;
#X connect 10 2 8 0;
#X connect 10 2 21 0;
#X connect 10 3 9 0;
#X connect 10 3 21 0;
#X connect 11 0 22 0;
#X connect 13 0 11 0;
#X connect 14 0 11 0;
#X connect 15 0 13 0;
#X connect 16 0 15 0;
#X connect 16 1 11 0;
#X connect 17 0 16 0;
#X connect 18 0 20 0;
#X connect 19 0 22 1;
#X connect 20 0 17 0;
#X connect 21 0 18 0;
#X connect 22 0 12 0;
#X connect 22 0 12 1;
#X restore 53 74 pd move;
#N canvas 692 655 450 300 level 0;
#X obj 30 25 receive xLoc;
#X obj 136 25 receive yLoc;
#X floatatom 34 65 5 0 0 0 - - -;
#X floatatom 137 64 5 0 0 0 - - -;
#X connect 0 0 2 0;
#X connect 1 0 3 0;
#X restore 171 30 pd level;
#X connect 0 0 1 0;
