#N canvas 649 280 450 300 10;
#X obj -14 14 key;
#N canvas 1313 81 700 584 move 0;
#X obj -47 25 inlet;
#X obj -45 57 0;
#X floatatom -75 227 5 0 0 0 - - -;
#X floatatom 63 207 5 0 0 0 - - -;
#X obj -52 192 +;
#X obj -62 131 -1;
#X obj -20 133 1;
#X obj 23 191 +;
#X obj 15 133 -1;
#X obj 57 135 1;
#X obj -56 91 sel 97 100 115 119;
#X obj 293 397 readsf~;
#X obj 279 498 dac~;
#X msg 261 359 1;
#X msg 214 370 0;
#X obj 245 309 bng 15 250 50 0 empty empty empty 17 7 0 10 -262144
-1 -1;
#X obj 280 321 trigger b a;
#X msg 278 272 open \$1;
#X floatatom 289 197 5 0 0 0 - - -;
#X floatatom 325 441 5 0 0 0 - - -;
#X obj 273 237 coll footsteps.txt;
#C restore;
#X obj 298 165 random 3;
#X obj 284 448 *~ 1;
#X obj -45 391 send xLoc;
#X obj 61 395 send yLoc;
#X obj -41 257 t a a;
#X obj -63 346 gate 1;
#X obj -26 288 >= 0;
#X obj -6 319 &&;
#X obj 98 251 t a a;
#X obj 109 286 >= 0;
#X obj 143 286 <= 1000;
#X obj 8 289 <= 1000;
#X obj 132 319 &&;
#X obj 69 344 gate 1;
#X connect 0 0 1 0;
#X connect 1 0 10 0;
#X connect 2 0 25 0;
#X connect 3 0 29 0;
#X connect 4 0 2 0;
#X connect 5 0 4 0;
#X connect 6 0 4 0;
#X connect 7 0 3 0;
#X connect 8 0 7 0;
#X connect 9 0 7 0;
#X connect 10 0 5 0;
#X connect 10 0 21 0;
#X connect 10 1 6 0;
#X connect 10 1 21 0;
#X connect 10 2 8 0;
#X connect 10 2 21 0;
#X connect 10 3 9 0;
#X connect 10 3 21 0;
#X connect 11 0 22 0;
#X connect 13 0 11 0;
#X connect 14 0 11 0;
#X connect 15 0 13 0;
#X connect 16 0 15 0;
#X connect 16 1 11 0;
#X connect 17 0 16 0;
#X connect 18 0 20 0;
#X connect 19 0 22 1;
#X connect 20 0 17 0;
#X connect 21 0 18 0;
#X connect 22 0 12 0;
#X connect 22 0 12 1;
#X connect 25 0 26 1;
#X connect 25 1 27 0;
#X connect 25 1 32 0;
#X connect 26 0 23 0;
#X connect 26 0 4 1;
#X connect 27 0 28 0;
#X connect 28 0 26 0;
#X connect 29 0 34 1;
#X connect 29 1 30 0;
#X connect 29 1 31 0;
#X connect 30 0 33 0;
#X connect 31 0 33 1;
#X connect 32 0 28 1;
#X connect 33 0 34 0;
#X connect 34 0 24 0;
#X connect 34 0 7 1;
#X restore -14 45 pd move;
#N canvas 1499 97 974 800 StormyArea 0;
#X obj 103 621 readsf~;
#X obj 89 722 dac~;
#X msg 71 583 1;
#X obj 55 533 bng 15 250 50 0 empty empty empty 17 7 0 10 -262144 -1
-1;
#X obj 131 521 trigger b a;
#X msg 129 472 open \$1;
#X obj 165 295 bng 15 250 50 0 empty empty empty 17 7 0 10 -262144
-1 -1;
#X floatatom 130 398 5 0 0 0 - - -;
#X floatatom 123 649 5 0 0 0 - - -;
#X obj 94 672 *~;
#X obj 515 629 readsf~;
#X obj 501 730 dac~;
#X msg 483 591 1;
#X msg 439 599 0;
#X obj 467 541 bng 15 250 50 0 empty empty empty 17 7 0 10 -262144
-1 -1;
#X obj 543 529 trigger b a;
#X msg 541 480 open \$1;
#X floatatom 542 406 5 0 0 0 - - -;
#X floatatom 581 640 5 0 0 0 - - -;
#X obj 506 680 *~;
#X obj 293 642 readsf~;
#X obj 285 737 dac~;
#X msg 304 580 1;
#X msg 265 594 0;
#X obj 289 546 bng 15 250 50 0 empty empty empty 17 7 0 10 -262144
-1 -1;
#X obj 321 542 trigger b a;
#X msg 319 493 open \$1;
#X obj 321 331 bng 15 250 50 0 empty empty empty 17 7 0 10 -262144
-1 -1;
#X floatatom 320 419 5 0 0 0 - - -;
#X floatatom 358 656 5 0 0 0 - - -;
#X obj 284 693 *~;
#X obj 320 383 random 5;
#X obj 124 437 coll rain.txt;
#C restore;
#X obj 314 457 coll ambient.txt;
#C restore;
#X obj 538 442 coll thunder.txt;
#C restore;
#X obj 130 362 random 2;
#X obj 548 331 bng 15 250 50 0 empty empty empty 17 7 0 10 -262144
-1 -1;
#X obj 542 370 random 10;
#X obj 120 3 receive xLoc;
#X obj 208 1 receive yLoc;
#X floatatom 120 37 5 0 0 0 - - -;
#X floatatom 209 39 5 0 0 0 - - -;
#X obj 163 179 &&;
#X floatatom 137 205 5 0 0 0 - - -;
#X obj 119 238 change;
#X floatatom 114 142 5 0 0 0 - - -;
#X floatatom 208 90 5 0 0 0 - - -;
#X obj 203 123 t b a;
#X obj 107 104 &&;
#X obj 65 73 > 0;
#X obj 210 63 > 500;
#X obj 137 66 < 500;
#X connect 0 0 9 0;
#X connect 0 1 6 0;
#X connect 2 0 0 0;
#X connect 3 0 2 0;
#X connect 4 0 3 0;
#X connect 4 1 0 0;
#X connect 5 0 4 0;
#X connect 6 0 27 0;
#X connect 6 0 35 0;
#X connect 7 0 32 0;
#X connect 8 0 9 1;
#X connect 9 0 1 0;
#X connect 9 0 1 1;
#X connect 10 0 19 0;
#X connect 12 0 10 0;
#X connect 13 0 10 0;
#X connect 14 0 12 0;
#X connect 15 0 14 0;
#X connect 15 1 10 0;
#X connect 16 0 15 0;
#X connect 17 0 34 0;
#X connect 18 0 19 1;
#X connect 19 0 11 0;
#X connect 19 0 11 1;
#X connect 20 0 30 0;
#X connect 22 0 20 0;
#X connect 23 0 20 0;
#X connect 24 0 22 0;
#X connect 25 0 24 0;
#X connect 25 1 20 0;
#X connect 26 0 25 0;
#X connect 27 0 31 0;
#X connect 27 0 36 0;
#X connect 28 0 33 0;
#X connect 29 0 30 1;
#X connect 30 0 21 0;
#X connect 30 0 21 1;
#X connect 31 0 28 0;
#X connect 32 0 5 0;
#X connect 33 0 26 0;
#X connect 34 0 16 0;
#X connect 35 0 7 0;
#X connect 36 0 37 0;
#X connect 37 0 17 0;
#X connect 38 0 40 0;
#X connect 39 0 41 0;
#X connect 40 0 49 0;
#X connect 40 0 51 0;
#X connect 41 0 50 0;
#X connect 42 0 43 0;
#X connect 43 0 44 0;
#X connect 43 0 8 0;
#X connect 43 0 29 0;
#X connect 43 0 18 0;
#X connect 44 0 6 0;
#X connect 45 0 42 0;
#X connect 46 0 47 0;
#X connect 47 0 42 0;
#X connect 47 1 42 1;
#X connect 48 0 45 0;
#X connect 49 0 48 0;
#X connect 50 0 46 0;
#X connect 51 0 48 1;
#X restore 10 147 pd StormyArea;
#N canvas 259 299 450 444 InitialStep 0;
#X obj 77 42 receive xLoc;
#X obj 174 41 receive yLoc;
#X floatatom 78 75 5 0 0 0 - - -;
#X floatatom 186 74 5 0 0 0 - - -;
#X obj 87 103 > 0;
#X obj 181 107 > 0;
#X obj 129 121 ||;
#X msg 121 207 open RawSounds/YouWillNotFind.wav;
#X obj 124 302 readsf~;
#X obj 126 329 *~;
#X floatatom 189 313 5 0 0 0 - - -;
#X obj 127 374 dac~;
#X obj 106 246 t b a;
#X obj 58 262 bng 15 250 50 0 empty empty empty 17 7 0 10 -262144 -1
-1;
#X obj 117 148 change;
#X msg 59 286 1;
#X connect 0 0 2 0;
#X connect 1 0 3 0;
#X connect 2 0 4 0;
#X connect 3 0 5 0;
#X connect 4 0 6 0;
#X connect 5 0 6 1;
#X connect 6 0 14 0;
#X connect 7 0 12 0;
#X connect 8 0 9 0;
#X connect 9 0 11 0;
#X connect 9 0 11 1;
#X connect 10 0 9 1;
#X connect 12 0 13 0;
#X connect 12 1 8 0;
#X connect 13 0 15 0;
#X connect 14 0 7 0;
#X connect 15 0 8 0;
#X restore 102 40 pd InitialStep;
#N canvas 1499 97 974 800 TranquilArea 0;
#X obj 103 621 readsf~;
#X obj 89 722 dac~;
#X msg 71 583 1;
#X obj 55 533 bng 15 250 50 0 empty empty empty 17 7 0 10 -262144 -1
-1;
#X obj 131 521 trigger b a;
#X msg 129 472 open \$1;
#X obj 165 295 bng 15 250 50 0 empty empty empty 17 7 0 10 -262144
-1 -1;
#X floatatom 130 398 5 0 0 0 - - -;
#X floatatom 123 649 5 0 0 0 - - -;
#X obj 94 672 *~;
#X obj 515 629 readsf~;
#X obj 501 730 dac~;
#X msg 483 591 1;
#X msg 439 599 0;
#X obj 467 541 bng 15 250 50 0 empty empty empty 17 7 0 10 -262144
-1 -1;
#X obj 543 529 trigger b a;
#X msg 541 480 open \$1;
#X floatatom 542 406 5 0 0 0 - - -;
#X floatatom 581 640 5 0 0 0 - - -;
#X obj 506 680 *~;
#X obj 293 642 readsf~;
#X obj 285 737 dac~;
#X msg 304 580 1;
#X msg 265 594 0;
#X obj 289 546 bng 15 250 50 0 empty empty empty 17 7 0 10 -262144
-1 -1;
#X obj 321 542 trigger b a;
#X msg 319 493 open \$1;
#X obj 321 331 bng 15 250 50 0 empty empty empty 17 7 0 10 -262144
-1 -1;
#X floatatom 320 419 5 0 0 0 - - -;
#X floatatom 358 656 5 0 0 0 - - -;
#X obj 284 693 *~;
#X obj 320 383 random 5;
#X obj 124 437 coll rain.txt;
#C restore;
#X obj 314 457 coll ambient.txt;
#C restore;
#X obj 538 442 coll thunder.txt;
#C restore;
#X obj 130 362 random 2;
#X obj 548 331 bng 15 250 50 0 empty empty empty 17 7 0 10 -262144
-1 -1;
#X obj 542 370 random 10;
#X obj 120 3 receive xLoc;
#X obj 208 1 receive yLoc;
#X floatatom 120 37 5 0 0 0 - - -;
#X floatatom 209 39 5 0 0 0 - - -;
#X obj 163 179 &&;
#X floatatom 137 205 5 0 0 0 - - -;
#X obj 119 238 change;
#X floatatom 114 142 5 0 0 0 - - -;
#X floatatom 208 90 5 0 0 0 - - -;
#X obj 203 123 t b a;
#X obj 107 104 &&;
#X obj 65 73 > 0;
#X obj 210 63 > 500;
#X obj 137 66 < 500;
#X connect 0 0 9 0;
#X connect 0 1 6 0;
#X connect 2 0 0 0;
#X connect 3 0 2 0;
#X connect 4 0 3 0;
#X connect 4 1 0 0;
#X connect 5 0 4 0;
#X connect 6 0 27 0;
#X connect 6 0 35 0;
#X connect 7 0 32 0;
#X connect 8 0 9 1;
#X connect 9 0 1 0;
#X connect 9 0 1 1;
#X connect 10 0 19 0;
#X connect 12 0 10 0;
#X connect 13 0 10 0;
#X connect 14 0 12 0;
#X connect 15 0 14 0;
#X connect 15 1 10 0;
#X connect 16 0 15 0;
#X connect 17 0 34 0;
#X connect 18 0 19 1;
#X connect 19 0 11 0;
#X connect 19 0 11 1;
#X connect 20 0 30 0;
#X connect 22 0 20 0;
#X connect 23 0 20 0;
#X connect 24 0 22 0;
#X connect 25 0 24 0;
#X connect 25 1 20 0;
#X connect 26 0 25 0;
#X connect 27 0 31 0;
#X connect 27 0 36 0;
#X connect 28 0 33 0;
#X connect 29 0 30 1;
#X connect 30 0 21 0;
#X connect 30 0 21 1;
#X connect 31 0 28 0;
#X connect 32 0 5 0;
#X connect 33 0 26 0;
#X connect 34 0 16 0;
#X connect 35 0 7 0;
#X connect 36 0 37 0;
#X connect 37 0 17 0;
#X connect 38 0 40 0;
#X connect 39 0 41 0;
#X connect 40 0 49 0;
#X connect 40 0 51 0;
#X connect 41 0 50 0;
#X connect 42 0 43 0;
#X connect 43 0 44 0;
#X connect 43 0 8 0;
#X connect 43 0 29 0;
#X connect 43 0 18 0;
#X connect 44 0 6 0;
#X connect 45 0 42 0;
#X connect 46 0 47 0;
#X connect 47 0 42 0;
#X connect 47 1 42 1;
#X connect 48 0 45 0;
#X connect 49 0 48 0;
#X connect 50 0 46 0;
#X connect 51 0 48 1;
#X restore 117 117 pd TranquilArea;
#N canvas 1499 97 974 800 CaveArea 0;
#X obj 103 621 readsf~;
#X obj 89 722 dac~;
#X msg 71 583 1;
#X obj 55 533 bng 15 250 50 0 empty empty empty 17 7 0 10 -262144 -1
-1;
#X obj 131 521 trigger b a;
#X msg 129 472 open \$1;
#X obj 165 295 bng 15 250 50 0 empty empty empty 17 7 0 10 -262144
-1 -1;
#X floatatom 130 398 5 0 0 0 - - -;
#X floatatom 123 649 5 0 0 0 - - -;
#X obj 94 672 *~;
#X obj 515 629 readsf~;
#X obj 501 730 dac~;
#X msg 483 591 1;
#X msg 439 599 0;
#X obj 467 541 bng 15 250 50 0 empty empty empty 17 7 0 10 -262144
-1 -1;
#X obj 543 529 trigger b a;
#X msg 541 480 open \$1;
#X floatatom 542 406 5 0 0 0 - - -;
#X floatatom 581 640 5 0 0 0 - - -;
#X obj 506 680 *~;
#X obj 293 642 readsf~;
#X obj 285 737 dac~;
#X msg 304 580 1;
#X msg 265 594 0;
#X obj 289 546 bng 15 250 50 0 empty empty empty 17 7 0 10 -262144
-1 -1;
#X obj 321 542 trigger b a;
#X msg 319 493 open \$1;
#X obj 321 331 bng 15 250 50 0 empty empty empty 17 7 0 10 -262144
-1 -1;
#X floatatom 320 419 5 0 0 0 - - -;
#X floatatom 358 656 5 0 0 0 - - -;
#X obj 284 693 *~;
#X obj 320 383 random 5;
#X obj 124 437 coll rain.txt;
#C restore;
#X obj 314 457 coll ambient.txt;
#C restore;
#X obj 538 442 coll thunder.txt;
#C restore;
#X obj 130 362 random 2;
#X obj 548 331 bng 15 250 50 0 empty empty empty 17 7 0 10 -262144
-1 -1;
#X obj 542 370 random 10;
#X obj 120 3 receive xLoc;
#X obj 208 1 receive yLoc;
#X floatatom 120 37 5 0 0 0 - - -;
#X floatatom 209 39 5 0 0 0 - - -;
#X obj 163 179 &&;
#X floatatom 137 205 5 0 0 0 - - -;
#X obj 119 238 change;
#X floatatom 114 142 5 0 0 0 - - -;
#X floatatom 208 90 5 0 0 0 - - -;
#X obj 203 123 t b a;
#X obj 107 104 &&;
#X obj 65 73 > 0;
#X obj 210 63 > 500;
#X obj 137 66 < 500;
#X connect 0 0 9 0;
#X connect 0 1 6 0;
#X connect 2 0 0 0;
#X connect 3 0 2 0;
#X connect 4 0 3 0;
#X connect 4 1 0 0;
#X connect 5 0 4 0;
#X connect 6 0 27 0;
#X connect 6 0 35 0;
#X connect 7 0 32 0;
#X connect 8 0 9 1;
#X connect 9 0 1 0;
#X connect 9 0 1 1;
#X connect 10 0 19 0;
#X connect 12 0 10 0;
#X connect 13 0 10 0;
#X connect 14 0 12 0;
#X connect 15 0 14 0;
#X connect 15 1 10 0;
#X connect 16 0 15 0;
#X connect 17 0 34 0;
#X connect 18 0 19 1;
#X connect 19 0 11 0;
#X connect 19 0 11 1;
#X connect 20 0 30 0;
#X connect 22 0 20 0;
#X connect 23 0 20 0;
#X connect 24 0 22 0;
#X connect 25 0 24 0;
#X connect 25 1 20 0;
#X connect 26 0 25 0;
#X connect 27 0 31 0;
#X connect 27 0 36 0;
#X connect 28 0 33 0;
#X connect 29 0 30 1;
#X connect 30 0 21 0;
#X connect 30 0 21 1;
#X connect 31 0 28 0;
#X connect 32 0 5 0;
#X connect 33 0 26 0;
#X connect 34 0 16 0;
#X connect 35 0 7 0;
#X connect 36 0 37 0;
#X connect 37 0 17 0;
#X connect 38 0 40 0;
#X connect 39 0 41 0;
#X connect 40 0 49 0;
#X connect 40 0 51 0;
#X connect 41 0 50 0;
#X connect 42 0 43 0;
#X connect 43 0 44 0;
#X connect 43 0 8 0;
#X connect 43 0 29 0;
#X connect 43 0 18 0;
#X connect 44 0 6 0;
#X connect 45 0 42 0;
#X connect 46 0 47 0;
#X connect 47 0 42 0;
#X connect 47 1 42 1;
#X connect 48 0 45 0;
#X connect 49 0 48 0;
#X connect 50 0 46 0;
#X connect 51 0 48 1;
#X restore 118 146 pd CaveArea;
#N canvas 1499 97 974 800 DesolateArea 0;
#X obj 103 621 readsf~;
#X obj 89 722 dac~;
#X msg 71 583 1;
#X obj 55 533 bng 15 250 50 0 empty empty empty 17 7 0 10 -262144 -1
-1;
#X obj 131 521 trigger b a;
#X msg 129 472 open \$1;
#X obj 165 295 bng 15 250 50 0 empty empty empty 17 7 0 10 -262144
-1 -1;
#X floatatom 130 398 5 0 0 0 - - -;
#X floatatom 123 649 5 0 0 0 - - -;
#X obj 94 672 *~;
#X obj 515 629 readsf~;
#X obj 501 730 dac~;
#X msg 483 591 1;
#X msg 439 599 0;
#X obj 467 541 bng 15 250 50 0 empty empty empty 17 7 0 10 -262144
-1 -1;
#X obj 543 529 trigger b a;
#X msg 541 480 open \$1;
#X floatatom 542 406 5 0 0 0 - - -;
#X floatatom 581 640 5 0 0 0 - - -;
#X obj 506 680 *~;
#X obj 293 642 readsf~;
#X obj 285 737 dac~;
#X msg 304 580 1;
#X msg 265 594 0;
#X obj 289 546 bng 15 250 50 0 empty empty empty 17 7 0 10 -262144
-1 -1;
#X obj 321 542 trigger b a;
#X msg 319 493 open \$1;
#X obj 321 331 bng 15 250 50 0 empty empty empty 17 7 0 10 -262144
-1 -1;
#X floatatom 320 419 5 0 0 0 - - -;
#X floatatom 358 656 5 0 0 0 - - -;
#X obj 284 693 *~;
#X obj 320 383 random 5;
#X obj 124 437 coll rain.txt;
#C restore;
#X obj 314 457 coll ambient.txt;
#C restore;
#X obj 538 442 coll thunder.txt;
#C restore;
#X obj 130 362 random 2;
#X obj 548 331 bng 15 250 50 0 empty empty empty 17 7 0 10 -262144
-1 -1;
#X obj 542 370 random 10;
#X obj 120 3 receive xLoc;
#X obj 208 1 receive yLoc;
#X floatatom 120 37 5 0 0 0 - - -;
#X floatatom 209 39 5 0 0 0 - - -;
#X obj 163 179 &&;
#X floatatom 137 205 5 0 0 0 - - -;
#X obj 119 238 change;
#X floatatom 114 142 5 0 0 0 - - -;
#X floatatom 208 90 5 0 0 0 - - -;
#X obj 203 123 t b a;
#X obj 107 104 &&;
#X obj 65 73 > 0;
#X obj 210 63 > 500;
#X obj 137 66 < 500;
#X connect 0 0 9 0;
#X connect 0 1 6 0;
#X connect 2 0 0 0;
#X connect 3 0 2 0;
#X connect 4 0 3 0;
#X connect 4 1 0 0;
#X connect 5 0 4 0;
#X connect 6 0 27 0;
#X connect 6 0 35 0;
#X connect 7 0 32 0;
#X connect 8 0 9 1;
#X connect 9 0 1 0;
#X connect 9 0 1 1;
#X connect 10 0 19 0;
#X connect 12 0 10 0;
#X connect 13 0 10 0;
#X connect 14 0 12 0;
#X connect 15 0 14 0;
#X connect 15 1 10 0;
#X connect 16 0 15 0;
#X connect 17 0 34 0;
#X connect 18 0 19 1;
#X connect 19 0 11 0;
#X connect 19 0 11 1;
#X connect 20 0 30 0;
#X connect 22 0 20 0;
#X connect 23 0 20 0;
#X connect 24 0 22 0;
#X connect 25 0 24 0;
#X connect 25 1 20 0;
#X connect 26 0 25 0;
#X connect 27 0 31 0;
#X connect 27 0 36 0;
#X connect 28 0 33 0;
#X connect 29 0 30 1;
#X connect 30 0 21 0;
#X connect 30 0 21 1;
#X connect 31 0 28 0;
#X connect 32 0 5 0;
#X connect 33 0 26 0;
#X connect 34 0 16 0;
#X connect 35 0 7 0;
#X connect 36 0 37 0;
#X connect 37 0 17 0;
#X connect 38 0 40 0;
#X connect 39 0 41 0;
#X connect 40 0 49 0;
#X connect 40 0 51 0;
#X connect 41 0 50 0;
#X connect 42 0 43 0;
#X connect 43 0 44 0;
#X connect 43 0 8 0;
#X connect 43 0 29 0;
#X connect 43 0 18 0;
#X connect 44 0 6 0;
#X connect 45 0 42 0;
#X connect 46 0 47 0;
#X connect 47 0 42 0;
#X connect 47 1 42 1;
#X connect 48 0 45 0;
#X connect 49 0 48 0;
#X connect 50 0 46 0;
#X connect 51 0 48 1;
#X restore 9 116 pd DesolateArea;
#X text 21 8 movement wasd keys;
#X text 103 21 That first step;
#X text 62 93 different areas;
#X connect 0 0 1 0;
