#N canvas 666 32 790 921 10;
#X obj 37 14 bng 15 250 50 0 empty empty empty 17 7 0 10 -262144 -1
-1;
#X obj 40 48 openpanel;
#X obj 2 369 readsf~;
#X obj -12 470 dac~;
#X msg -30 331 1;
#X msg 28 220 open \$1;
#X floatatom 22 397 5 0 0 0 - - -;
#X obj -7 420 *~;
#X obj 82 360 tgl 15 0 empty empty empty 17 7 0 10 -262144 -1 -1 0
1;
#X obj 80 387 metro 100;
#X obj 77 434 snapshot~;
#X floatatom 64 477 10 0 0 0 - - -;
#X obj 24 253 prepend set;
#X msg 25 291 open C:/Users/kyle.dittle/Desktop/SoundForInteraction/Sounds/BottleEffect.wav
;
#X obj 241 373 pack 0 0;
#X obj 239 408 peek~ channelL;
#X floatatom 242 341 5 0 0 0 - - -;
#X floatatom 289 340 5 0 0 0 - - -;
#X floatatom 207 453 15 0 0 0 - - -;
#X floatatom 185 346 5 0 0 0 - - -;
#N canvas 0 0 450 300 (subpatch) 0;
#X array channelL 248832 float 0;
#X coords 0 1 248831 -1 200 140 1;
#X restore 412 -35 graph;
#N canvas 0 0 450 300 (subpatch) 0;
#X array channelR 248832 float 0;
#X coords 0 1 248831 -1 200 140 1;
#X restore 413 137 graph;
#X obj 105 112 soundfiler;
#X floatatom 159 135 30 0 0 0 - - -;
#X msg 75 84 read -resize \$1 channelL channelR;
#X obj 354 407 tabread4~ channelL;
#X obj 477 405 tabread4~ channelR;
#X obj 428 452 dac~;
#X obj 166 249 phasor~;
#X obj 445 293 *~;
#X floatatom 129 220 5 0 0 0 - - -;
#X obj 93 178 expr 44100 / $f1;
#X floatatom 262 220 15 0 0 0 - - -;
#X obj 437 348 +~ 1000;
#X floatatom 484 312 15 0 0 0 - - -;
#X connect 0 0 1 0;
#X connect 1 0 5 0;
#X connect 1 0 24 0;
#X connect 2 0 7 0;
#X connect 4 0 2 0;
#X connect 5 0 12 0;
#X connect 6 0 7 1;
#X connect 7 0 3 0;
#X connect 7 0 3 1;
#X connect 7 0 10 0;
#X connect 8 0 9 0;
#X connect 9 0 10 0;
#X connect 10 0 11 0;
#X connect 12 0 13 0;
#X connect 13 0 2 0;
#X connect 14 0 15 0;
#X connect 15 0 18 0;
#X connect 16 0 14 0;
#X connect 17 0 14 1;
#X connect 19 0 15 0;
#X connect 22 0 23 0;
#X connect 23 0 31 0;
#X connect 23 0 32 0;
#X connect 24 0 22 0;
#X connect 25 0 27 0;
#X connect 26 0 27 1;
#X connect 28 0 29 0;
#X connect 29 0 33 0;
#X connect 30 0 28 0;
#X connect 31 0 30 0;
#X connect 32 0 29 1;
#X connect 33 0 25 0;
#X connect 33 0 26 0;
#X connect 34 0 33 1;
